Griffith_Gothic-Thin_Italic.ufo
<glyph name="exclam" format="1">
  <advance width="230"/>
  <unicode hex="0021"/>
  <outline>
    <contour>
      <point x="257" y="720" type="line"/>
      <point x="109" y="198" type="line"/>
      <point x="91" y="198" type="line"/>
      <point x="203" y="720" type="line"/>
    </contour>
    <contour>
      <point x="98" y="31" type="curve" smooth="yes"/>
      <point x="98" y="9"/>
      <point x="82" y="-7"/>
      <point x="60" y="-7" type="curve" smooth="yes"/>
      <point x="38" y="-7"/>
      <point x="22" y="9"/>
      <point x="22" y="31" type="curve" smooth="yes"/>
      <point x="22" y="53"/>
      <point x="38" y="69"/>
      <point x="60" y="69" type="curve" smooth="yes"/>
      <point x="82" y="69"/>
      <point x="98" y="53"/>
    </contour>
  </outline>
</glyph>
<glyph name="quotesingle" format="1">
  <advance width="170"/>
  <unicode hex="0027"/>
  <outline>
    <contour>
      <point x="206" y="720" type="line"/>
      <point x="146" y="525" type="line"/>
      <point x="120" y="525" type="line"/>
      <point x="158" y="720" type="line"/>
    </contour>
  </outline>
</glyph>
<glyph name="parenleft" format="1">
  <advance width="295"/>
  <unicode hex="0028"/>
  <outline>
    <contour>
      <point x="383" y="735" type="line"/>
      <point x="216" y="597"/>
      <point x="107" y="395"/>
      <point x="107" y="188" type="curve" smooth="yes"/>
      <point x="107" y="79"/>
      <point x="125" y="1"/>
      <point x="171" y="-95" type="curve"/>
      <point x="138" y="-95" type="line"/>
      <point x="96" y="-19"/>
      <point x="63" y="84"/>
      <point x="63" y="191" type="curve" smooth="yes"/>
      <point x="63" y="417"/>
      <point x="186" y="608"/>
      <point x="343" y="735" type="curve"/>
    </contour>
  </outline>
</glyph>
<glyph name="parenright" format="1">
  <advance width="295"/>
  <unicode hex="0029"/>
  <outline>
    <contour>
      <point x="264" y="449" type="curve" smooth="yes"/>
      <point x="264" y="223"/>
      <point x="141" y="32"/>
      <point x="-16" y="-95" type="curve"/>
      <point x="-56" y="-95" type="line"/>
      <point x="111" y="43"/>
      <point x="220" y="245"/>
      <point x="220" y="452" type="curve" smooth="yes"/>
      <point x="220" y="561"/>
      <point x="202" y="639"/>
      <point x="156" y="735" type="curve"/>
      <point x="189" y="735" type="line"/>
      <point x="231" y="659"/>
      <point x="264" y="556"/>
    </contour>
  </outline>
</glyph>
<glyph name="plus" format="1">
  <advance width="600"/>
  <unicode hex="002B"/>
  <outline>
    <contour>
      <point x="577" y="336" type="line"/>
      <point x="345" y="336" type="line"/>
      <point x="345" y="103" type="line"/>
      <point x="305" y="103" type="line"/>
      <point x="305" y="336" type="line"/>
      <point x="73" y="336" type="line"/>
      <point x="73" y="374" type="line"/>
      <point x="305" y="374" type="line"/>
      <point x="305" y="607" type="line"/>
      <point x="345" y="607" type="line"/>
      <point x="345" y="374" type="line"/>
      <point x="577" y="374" type="line"/>
    </contour>
  </outline>
</glyph>
<glyph name="hyphen" format="1">
  <advance width="300"/>
  <unicode hex="002D"/>
  <unicode hex="2010"/>
  <unicode hex="2011"/>
  <outline>
    <contour>
      <point x="270" y="298" type="line"/>
      <point x="260" y="258" type="line"/>
      <point x="40" y="258" type="line"/>
      <point x="50" y="298" type="line"/>
    </contour>
  </outline>
</glyph>
<glyph name="two" format="1">
  <advance width="546"/>
  <unicode hex="0032"/>
  <outline>
    <contour>
      <point x="542" y="568" type="curve" smooth="yes"/>
      <point x="542" y="444"/>
      <point x="450" y="370"/>
      <point x="319" y="299" type="curve" smooth="yes"/>
      <point x="176" y="221"/>
      <point x="97" y="131"/>
      <point x="61" y="36" type="curve"/>
      <point x="433" y="36" type="line"/>
      <point x="425" y="0" type="line"/>
      <point x="8" y="0" type="line"/>
      <point x="14" y="31" type="line"/>
      <point x="69" y="159"/>
      <point x="149" y="246"/>
      <point x="308" y="334" type="curve" smooth="yes"/>
      <point x="423" y="397"/>
      <point x="498" y="462"/>
      <point x="498" y="566" type="curve" smooth="yes"/>
      <point x="498" y="643"/>
      <point x="453" y="696"/>
      <point x="367" y="696" type="curve" smooth="yes"/>
      <point x="288" y="696"/>
      <point x="225" y="653"/>
      <point x="163" y="573" type="curve"/>
      <point x="133" y="593" type="line"/>
      <point x="196" y="677"/>
      <point x="270" y="732"/>
      <point x="370" y="732" type="curve" smooth="yes"/>
      <point x="479" y="732"/>
      <point x="542" y="664"/>
    </contour>
  </outline>
</glyph>
<glyph name="three" format="1">
  <advance width="506"/>
  <unicode hex="0033"/>
  <outline>
    <contour>
      <point x="497" y="603" type="curve" smooth="yes"/>
      <point x="497" y="510"/>
      <point x="429" y="454"/>
      <point x="287" y="401" type="curve"/>
      <point x="289" y="397" type="line"/>
      <point x="389" y="398"/>
      <point x="463" y="355"/>
      <point x="463" y="254" type="curve" smooth="yes"/>
      <point x="463" y="95"/>
      <point x="263" y="-4"/>
      <point x="40" y="-4" type="curve" smooth="yes"/>
      <point x="6" y="-4"/>
      <point x="-9" y="-3"/>
      <point x="-39" y="0" type="curve"/>
      <point x="-33" y="36" type="line"/>
      <point x="-5" y="33"/>
      <point x="9" y="32"/>
      <point x="42" y="32" type="curve" smooth="yes"/>
      <point x="238" y="32"/>
      <point x="419" y="111"/>
      <point x="419" y="252" type="curve" smooth="yes"/>
      <point x="419" y="340"/>
      <point x="362" y="371"/>
      <point x="278" y="371" type="curve" smooth="yes"/>
      <point x="252" y="371"/>
      <point x="228" y="369"/>
      <point x="203" y="364" type="curve"/>
      <point x="199" y="398" type="line"/>
      <point x="391" y="457"/>
      <point x="453" y="515"/>
      <point x="453" y="600" type="curve" smooth="yes"/>
      <point x="453" y="659"/>
      <point x="413" y="696"/>
      <point x="348" y="696" type="curve" smooth="yes"/>
      <point x="284" y="696"/>
      <point x="223" y="670"/>
      <point x="156" y="616" type="curve"/>
      <point x="137" y="644" type="line"/>
      <point x="201" y="695"/>
      <point x="268" y="732"/>
      <point x="352" y="732" type="curve" smooth="yes"/>
      <point x="441" y="732"/>
      <point x="497" y="683"/>
    </contour>
  </outline>
</glyph>
<glyph name="four" format="1">
  <advance width="558"/>
  <unicode hex="0034"/>
  <outline>
    <contour>
      <point x="536" y="720" type="line"/>
      <point x="418" y="245" type="line"/>
      <point x="513" y="245" type="line"/>
      <point x="505" y="211" type="line"/>
      <point x="410" y="211" type="line"/>
      <point x="357" y="0" type="line"/>
      <point x="316" y="0" type="line"/>
      <point x="369" y="211" type="line"/>
      <point x="32" y="211" type="line"/>
      <point x="46" y="266" type="line"/>
      <point x="463" y="720" type="line"/>
    </contour>
    <contour>
      <point x="486" y="681" type="line"/>
      <point x="472" y="681" type="line"/>
      <point x="83" y="259" type="line"/>
      <point x="79" y="245" type="line"/>
      <point x="377" y="245" type="line"/>
    </contour>
  </outline>
</glyph>
<glyph name="six" format="1">
  <advance width="541"/>
  <unicode hex="0036"/>
  <outline>
    <contour>
      <point x="508" y="254" type="curve" smooth="yes"/>
      <point x="508" y="110"/>
      <point x="382" y="-12"/>
      <point x="239" y="-12" type="curve" smooth="yes"/>
      <point x="127" y="-12"/>
      <point x="49" y="64"/>
      <point x="49" y="184" type="curve" smooth="yes"/>
      <point x="49" y="401"/>
      <point x="230" y="604"/>
      <point x="417" y="720" type="curve"/>
      <point x="486" y="720" type="line"/>
      <point x="302" y="615"/>
      <point x="171" y="469"/>
      <point x="123" y="349" type="curve"/>
      <point x="130" y="349" type="line"/>
      <point x="193" y="412"/>
      <point x="249" y="442"/>
      <point x="324" y="442" type="curve" smooth="yes"/>
      <point x="433" y="442"/>
      <point x="508" y="378"/>
    </contour>
    <contour>
      <point x="464" y="252" type="curve" smooth="yes"/>
      <point x="464" y="350"/>
      <point x="412" y="406"/>
      <point x="315" y="406" type="curve" smooth="yes"/>
      <point x="199" y="406"/>
      <point x="91" y="312"/>
      <point x="91" y="179" type="curve" smooth="yes"/>
      <point x="91" y="85"/>
      <point x="151" y="24"/>
      <point x="245" y="24" type="curve" smooth="yes"/>
      <point x="363" y="24"/>
      <point x="464" y="127"/>
    </contour>
  </outline>
</glyph>
<glyph name="colon" format="1">
  <advance width="190"/>
  <unicode hex="003A"/>
  <outline>
    <contour>
      <point x="188" y="478" type="curve" smooth="yes"/>
      <point x="188" y="456"/>
      <point x="172" y="440"/>
      <point x="150" y="440" type="curve" smooth="yes"/>
      <point x="128" y="440"/>
      <point x="112" y="456"/>
      <point x="112" y="478" type="curve" smooth="yes"/>
      <point x="112" y="500"/>
      <point x="128" y="516"/>
      <point x="150" y="516" type="curve" smooth="yes"/>
      <point x="172" y="516"/>
      <point x="188" y="500"/>
    </contour>
    <contour>
      <point x="78" y="31" type="curve" smooth="yes"/>
      <point x="78" y="9"/>
      <point x="62" y="-7"/>
      <point x="40" y="-7" type="curve" smooth="yes"/>
      <point x="18" y="-7"/>
      <point x="2" y="9"/>
      <point x="2" y="31" type="curve" smooth="yes"/>
      <point x="2" y="53"/>
      <point x="18" y="69"/>
      <point x="40" y="69" type="curve" smooth="yes"/>
      <point x="62" y="69"/>
      <point x="78" y="53"/>
    </contour>
  </outline>
</glyph>
<glyph name="equal" format="1">
  <advance width="600"/>
  <unicode hex="003D"/>
  <outline>
    <contour>
      <point x="564" y="450" type="line"/>
      <point x="86" y="450" type="line"/>
      <point x="86" y="492" type="line"/>
      <point x="564" y="492" type="line"/>
    </contour>
    <contour>
      <point x="564" y="218" type="line"/>
      <point x="86" y="218" type="line"/>
      <point x="86" y="260" type="line"/>
      <point x="564" y="260" type="line"/>
    </contour>
  </outline>
</glyph>
<glyph name="greater" format="1">
  <advance width="600"/>
  <unicode hex="003E"/>
  <outline>
    <contour>
      <point x="574" y="335" type="line"/>
      <point x="85" y="109" type="line"/>
      <point x="85" y="151" type="line"/>
      <point x="531" y="355" type="line"/>
      <point x="85" y="559" type="line"/>
      <point x="85" y="601" type="line"/>
      <point x="574" y="375" type="line"/>
    </contour>
  </outline>
</glyph>
<glyph name="A" format="1">
  <advance width="656"/>
  <unicode hex="0041"/>
  <outline>
    <contour>
      <point x="560" y="0" type="line"/>
      <point x="518" y="0" type="line"/>
      <point x="495" y="201" type="line"/>
      <point x="137" y="201" type="line"/>
      <point x="14" y="0" type="line"/>
      <point x="-32" y="0" type="line"/>
      <point x="413" y="724" type="line"/>
      <point x="477" y="724" type="line"/>
    </contour>
    <contour>
      <point x="491" y="237" type="line"/>
      <point x="441" y="686" type="line"/>
      <point x="433" y="686" type="line"/>
      <point x="159" y="237" type="line"/>
    </contour>
  </outline>
</glyph>
<glyph name="B" format="1">
  <advance width="601"/>
  <unicode hex="0042"/>
  <outline>
    <contour>
      <point x="600" y="575" type="curve" smooth="yes"/>
      <point x="600" y="478"/>
      <point x="515" y="409"/>
      <point x="416" y="389" type="curve"/>
      <point x="416" y="385" type="line"/>
      <point x="490" y="365"/>
      <point x="545" y="319"/>
      <point x="545" y="238" type="curve" smooth="yes"/>
      <point x="545" y="83"/>
      <point x="419" y="0"/>
      <point x="251" y="0" type="curve" smooth="yes"/>
      <point x="28" y="0" type="line"/>
      <point x="207" y="720" type="line"/>
      <point x="408" y="720" type="line" smooth="yes"/>
      <point x="535" y="720"/>
      <point x="600" y="665"/>
    </contour>
    <contour>
      <point x="555" y="573" type="curve" smooth="yes"/>
      <point x="555" y="643"/>
      <point x="507" y="684"/>
      <point x="404" y="684" type="curve" smooth="yes"/>
      <point x="241" y="684" type="line"/>
      <point x="172" y="406" type="line"/>
      <point x="337" y="406" type="line" smooth="yes"/>
      <point x="467" y="406"/>
      <point x="555" y="476"/>
    </contour>
    <contour>
      <point x="500" y="235" type="curve" smooth="yes"/>
      <point x="500" y="308"/>
      <point x="453" y="370"/>
      <point x="330" y="370" type="curve" smooth="yes"/>
      <point x="164" y="370" type="line"/>
      <point x="80" y="36" type="line"/>
      <point x="248" y="36" type="line" smooth="yes"/>
      <point x="399" y="36"/>
      <point x="500" y="101"/>
    </contour>
  </outline>
</glyph>
<glyph name="D" format="1">
  <advance width="612"/>
  <unicode hex="0044"/>
  <outline>
    <contour>
      <point x="593" y="458" type="line" smooth="yes"/>
      <point x="593" y="413"/>
      <point x="589" y="378"/>
      <point x="580" y="338" type="curve" smooth="yes"/>
      <point x="532" y="129"/>
      <point x="365" y="0"/>
      <point x="180" y="0" type="curve" smooth="yes"/>
      <point x="28" y="0" type="line"/>
      <point x="207" y="720" type="line"/>
      <point x="328" y="720" type="line" smooth="yes"/>
      <point x="480" y="720"/>
      <point x="593" y="638"/>
      <point x="593" y="460" type="curve" smooth="yes"/>
    </contour>
    <contour>
      <point x="549" y="456" type="curve" smooth="yes"/>
      <point x="549" y="458" type="line" smooth="yes"/>
      <point x="549" y="609"/>
      <point x="457" y="684"/>
      <point x="325" y="684" type="curve" smooth="yes"/>
      <point x="242" y="684" type="line"/>
      <point x="81" y="36" type="line"/>
      <point x="183" y="36" type="line" smooth="yes"/>
      <point x="343" y="36"/>
      <point x="486" y="147"/>
      <point x="533" y="326" type="curve" smooth="yes"/>
      <point x="543" y="364"/>
      <point x="549" y="412"/>
    </contour>
  </outline>
</glyph>
<glyph name="E" format="1">
  <advance width="550"/>
  <unicode hex="0045"/>
  <outline>
    <contour>
      <point x="611" y="720" type="line"/>
      <point x="602" y="684" type="line"/>
      <point x="242" y="684" type="line"/>
      <point x="170" y="396" type="line"/>
      <point x="477" y="396" type="line"/>
      <point x="469" y="360" type="line"/>
      <point x="162" y="360" type="line"/>
      <point x="81" y="36" type="line"/>
      <point x="453" y="36" type="line"/>
      <point x="444" y="0" type="line"/>
      <point x="28" y="0" type="line"/>
      <point x="207" y="720" type="line"/>
    </contour>
  </outline>
</glyph>
<glyph name="F" format="1">
  <advance width="518"/>
  <unicode hex="0046"/>
  <outline>
    <contour>
      <point x="608" y="720" type="line"/>
      <point x="599" y="684" type="line"/>
      <point x="242" y="684" type="line"/>
      <point x="167" y="381" type="line"/>
      <point x="461" y="381" type="line"/>
      <point x="452" y="345" type="line"/>
      <point x="158" y="345" type="line"/>
      <point x="72" y="0" type="line"/>
      <point x="28" y="0" type="line"/>
      <point x="207" y="720" type="line"/>
    </contour>
  </outline>
</glyph>
<glyph name="G" format="1">
  <advance width="604"/>
  <unicode hex="0047"/>
  <outline>
    <contour>
      <point x="580" y="570" type="curve"/>
      <point x="540" y="555" type="line"/>
      <point x="520" y="636"/>
      <point x="488" y="696"/>
      <point x="399" y="696" type="curve" smooth="yes"/>
      <point x="271" y="696"/>
      <point x="173" y="548"/>
      <point x="132" y="393" type="curve" smooth="yes"/>
      <point x="117" y="338"/>
      <point x="109" y="285"/>
      <point x="109" y="233" type="curve" smooth="yes"/>
      <point x="109" y="231" type="line" smooth="yes"/>
      <point x="109" y="117"/>
      <point x="156" y="24"/>
      <point x="253" y="24" type="curve" smooth="yes"/>
      <point x="351" y="24"/>
      <point x="429" y="123"/>
      <point x="490" y="294" type="curve"/>
      <point x="313" y="294" type="line"/>
      <point x="322" y="330" type="line"/>
      <point x="556" y="330" type="line"/>
      <point x="473" y="0" type="line"/>
      <point x="439" y="0" type="line"/>
      <point x="497" y="230" type="line"/>
      <point x="492" y="230" type="line"/>
      <point x="426" y="80"/>
      <point x="363" y="-12"/>
      <point x="250" y="-12" type="curve" smooth="yes"/>
      <point x="134" y="-12"/>
      <point x="65" y="83"/>
      <point x="65" y="230" type="curve" smooth="yes"/>
      <point x="65" y="232" type="line" smooth="yes"/>
      <point x="65" y="278"/>
      <point x="70" y="316"/>
      <point x="82" y="371" type="curve" smooth="yes"/>
      <point x="123" y="555"/>
      <point x="241" y="732"/>
      <point x="402" y="732" type="curve" smooth="yes"/>
      <point x="509" y="732"/>
      <point x="560" y="662"/>
    </contour>
  </outline>
</glyph>
<glyph name="H" format="1">
  <advance width="616"/>
  <unicode hex="0048"/>
  <outline>
    <contour>
      <point x="640" y="720" type="line"/>
      <point x="461" y="0" type="line"/>
      <point x="417" y="0" type="line"/>
      <point x="507" y="360" type="line"/>
      <point x="162" y="360" type="line"/>
      <point x="72" y="0" type="line"/>
      <point x="28" y="0" type="line"/>
      <point x="207" y="720" type="line"/>
      <point x="251" y="720" type="line"/>
      <point x="170" y="396" type="line"/>
      <point x="515" y="396" type="line"/>
      <point x="596" y="720" type="line"/>
    </contour>
  </outline>
</glyph>
<glyph name="I" format="1">
  <advance width="372"/>
  <unicode hex="0049"/>
  <outline>
    <contour>
      <point x="428" y="720" type="line"/>
      <point x="420" y="689" type="line"/>
      <point x="316" y="689" type="line"/>
      <point x="152" y="31" type="line"/>
      <point x="256" y="31" type="line"/>
      <point x="248" y="0" type="line"/>
      <point x="-4" y="0" type="line"/>
      <point x="4" y="31" type="line"/>
      <point x="108" y="31" type="line"/>
      <point x="272" y="689" type="line"/>
      <point x="168" y="689" type="line"/>
      <point x="176" y="720" type="line"/>
    </contour>
  </outline>
</glyph>
<glyph name="L" format="1">
  <advance width="500"/>
  <unicode hex="004C"/>
  <outline>
    <contour>
      <point x="428" y="36" type="line"/>
      <point x="419" y="0" type="line"/>
      <point x="28" y="0" type="line"/>
      <point x="207" y="720" type="line"/>
      <point x="251" y="720" type="line"/>
      <point x="81" y="36" type="line"/>
    </contour>
  </outline>
</glyph>
<glyph name="O" format="1">
  <advance width="604"/>
  <unicode hex="004F"/>
  <outline>
    <contour>
      <point x="591" y="488" type="line" smooth="yes"/>
      <point x="591" y="437"/>
      <point x="584" y="392"/>
      <point x="572" y="338" type="curve" smooth="yes"/>
      <point x="532" y="160"/>
      <point x="414" y="-12"/>
      <point x="258" y="-12" type="curve" smooth="yes"/>
      <point x="134" y="-12"/>
      <point x="65" y="83"/>
      <point x="65" y="230" type="curve" smooth="yes"/>
      <point x="65" y="232" type="line" smooth="yes"/>
      <point x="65" y="283"/>
      <point x="72" y="328"/>
      <point x="84" y="382" type="curve" smooth="yes"/>
      <point x="124" y="560"/>
      <point x="242" y="732"/>
      <point x="398" y="732" type="curve" smooth="yes"/>
      <point x="522" y="732"/>
      <point x="591" y="637"/>
      <point x="591" y="490" type="curve" smooth="yes"/>
    </contour>
    <contour>
      <point x="547" y="487" type="curve" smooth="yes"/>
      <point x="547" y="489" type="line" smooth="yes"/>
      <point x="547" y="603"/>
      <point x="501" y="696"/>
      <point x="395" y="696" type="curve" smooth="yes"/>
      <point x="271" y="696"/>
      <point x="173" y="551"/>
      <point x="133" y="401" type="curve" smooth="yes"/>
      <point x="118" y="346"/>
      <point x="109" y="286"/>
      <point x="109" y="233" type="curve" smooth="yes"/>
      <point x="109" y="231" type="line" smooth="yes"/>
      <point x="109" y="117"/>
      <point x="155" y="24"/>
      <point x="261" y="24" type="curve" smooth="yes"/>
      <point x="385" y="24"/>
      <point x="483" y="169"/>
      <point x="523" y="319" type="curve" smooth="yes"/>
      <point x="538" y="374"/>
      <point x="547" y="434"/>
    </contour>
  </outline>
</glyph>
<glyph name="P" format="1">
  <advance width="560"/>
  <unicode hex="0050"/>
  <outline>
    <contour>
      <point x="586" y="555" type="curve" smooth="yes"/>
      <point x="586" y="411"/>
      <point x="465" y="316"/>
      <point x="300" y="316" type="curve" smooth="yes"/>
      <point x="150" y="316" type="line"/>
      <point x="72" y="0" type="line"/>
      <point x="28" y="0" type="line"/>
      <point x="207" y="720" type="line"/>
      <point x="385" y="720" type="line" smooth="yes"/>
      <point x="513" y="720"/>
      <point x="586" y="663"/>
    </contour>
    <contour>
      <point x="541" y="553" type="curve" smooth="yes"/>
      <point x="541" y="635"/>
      <point x="490" y="684"/>
      <point x="380" y="684" type="curve" smooth="yes"/>
      <point x="242" y="684" type="line"/>
      <point x="159" y="352" type="line"/>
      <point x="295" y="352" type="line" smooth="yes"/>
      <point x="442" y="352"/>
      <point x="541" y="426"/>
    </contour>
  </outline>
</glyph>
<glyph name="R" format="1">
  <advance width="587"/>
  <unicode hex="0052"/>
  <outline>
    <contour>
      <point x="595" y="560" type="curve" smooth="yes"/>
      <point x="595" y="424"/>
      <point x="491" y="340"/>
      <point x="341" y="331" type="curve"/>
      <point x="488" y="0" type="line"/>
      <point x="438" y="0" type="line"/>
      <point x="295" y="330" type="line"/>
      <point x="153" y="330" type="line"/>
      <point x="72" y="0" type="line"/>
      <point x="28" y="0" type="line"/>
      <point x="207" y="720" type="line"/>
      <point x="395" y="720" type="line" smooth="yes"/>
      <point x="523" y="720"/>
      <point x="595" y="668"/>
    </contour>
    <contour>
      <point x="550" y="558" type="curve" smooth="yes"/>
      <point x="550" y="640"/>
      <point x="500" y="684"/>
      <point x="390" y="684" type="curve" smooth="yes"/>
      <point x="242" y="684" type="line"/>
      <point x="162" y="366" type="line"/>
      <point x="308" y="366" type="line" smooth="yes"/>
      <point x="455" y="366"/>
      <point x="550" y="431"/>
    </contour>
  </outline>
</glyph>
<glyph name="S" format="1">
  <advance width="551"/>
  <unicode hex="0053"/>
  <outline>
    <contour>
      <point x="553" y="570" type="curve"/>
      <point x="513" y="558" type="line"/>
      <point x="495" y="644"/>
      <point x="448" y="696"/>
      <point x="350" y="696" type="curve" smooth="yes"/>
      <point x="253" y="696"/>
      <point x="193" y="630"/>
      <point x="193" y="557" type="curve" smooth="yes"/>
      <point x="193" y="491"/>
      <point x="225" y="451"/>
      <point x="325" y="395" type="curve" smooth="yes"/>
      <point x="438" y="331"/>
      <point x="478" y="281"/>
      <point x="478" y="194" type="curve" smooth="yes"/>
      <point x="478" y="69"/>
      <point x="373" y="-12"/>
      <point x="253" y="-12" type="curve" smooth="yes"/>
      <point x="121" y="-12"/>
      <point x="37" y="57"/>
      <point x="25" y="178" type="curve"/>
      <point x="66" y="190" type="line"/>
      <point x="76" y="78"/>
      <point x="146" y="24"/>
      <point x="257" y="24" type="curve" smooth="yes"/>
      <point x="366" y="24"/>
      <point x="434" y="99"/>
      <point x="434" y="190" type="curve" smooth="yes"/>
      <point x="434" y="258"/>
      <point x="402" y="301"/>
      <point x="300" y="358" type="curve" smooth="yes"/>
      <point x="203" y="413"/>
      <point x="149" y="461"/>
      <point x="149" y="553" type="curve" smooth="yes"/>
      <point x="149" y="656"/>
      <point x="239" y="732"/>
      <point x="353" y="732" type="curve" smooth="yes"/>
      <point x="462" y="732"/>
      <point x="535" y="674"/>
    </contour>
  </outline>
</glyph>
<glyph name="T" format="1">
  <advance width="548"/>
  <unicode hex="0054"/>
  <outline>
    <contour>
      <point x="643" y="720" type="line"/>
      <point x="634" y="684" type="line"/>
      <point x="402" y="684" type="line"/>
      <point x="232" y="0" type="line"/>
      <point x="188" y="0" type="line"/>
      <point x="358" y="684" type="line"/>
      <point x="126" y="684" type="line"/>
      <point x="135" y="720" type="line"/>
    </contour>
  </outline>
</glyph>
<glyph name="V" format="1">
  <advance width="598"/>
  <unicode hex="0056"/>
  <outline>
    <contour>
      <point x="681" y="720" type="line"/>
      <point x="260" y="-8" type="line"/>
      <point x="206" y="-8" type="line"/>
      <point x="147" y="720" type="line"/>
      <point x="189" y="720" type="line"/>
      <point x="239" y="34" type="line"/>
      <point x="245" y="34" type="line"/>
      <point x="635" y="720" type="line"/>
    </contour>
  </outline>
</glyph>
<glyph name="X" format="1">
  <advance width="610"/>
  <unicode hex="0058"/>
  <outline>
    <contour>
      <point x="676" y="720" type="line"/>
      <point x="356" y="369" type="line"/>
      <point x="512" y="0" type="line"/>
      <point x="466" y="0" type="line"/>
      <point x="327" y="342" type="line"/>
      <point x="21" y="0" type="line"/>
      <point x="-30" y="0" type="line"/>
      <point x="312" y="374" type="line"/>
      <point x="166" y="720" type="line"/>
      <point x="212" y="720" type="line"/>
      <point x="340" y="401" type="line"/>
      <point x="625" y="720" type="line"/>
    </contour>
  </outline>
</glyph>
<glyph name="Y" format="1">
  <advance width="604"/>
  <unicode hex="0059"/>
  <outline>
    <contour>
      <point x="700" y="720" type="line"/>
      <point x="329" y="276" type="line"/>
      <point x="261" y="0" type="line"/>
      <point x="217" y="0" type="line"/>
      <point x="285" y="276" type="line"/>
      <point x="136" y="720" type="line"/>
      <point x="182" y="720" type="line"/>
      <point x="314" y="310" type="line"/>
      <point x="650" y="720" type="line"/>
    </contour>
  </outline>
</glyph>
<glyph name="bracketleft" format="1">
  <advance width="324"/>
  <unicode hex="005B"/>
  <outline>
    <contour>
      <point x="414" y="720" type="line"/>
      <point x="406" y="688" type="line"/>
      <point x="222" y="695" type="line"/>
      <point x="36" y="-55" type="line"/>
      <point x="222" y="-48" type="line"/>
      <point x="214" y="-80" type="line"/>
      <point x="-13" y="-87" type="line"/>
      <point x="189" y="727" type="line"/>
    </contour>
  </outline>
</glyph>
<glyph name="bracketright" format="1">
  <advance width="324"/>
  <unicode hex="005D"/>
  <outline>
    <contour>
      <point x="369" y="727" type="line"/>
      <point x="167" y="-87" type="line"/>
      <point x="-58" y="-80" type="line"/>
      <point x="-50" y="-48" type="line"/>
      <point x="134" y="-55" type="line"/>
      <point x="320" y="695" type="line"/>
      <point x="134" y="688" type="line"/>
      <point x="142" y="720" type="line"/>
    </contour>
  </outline>
</glyph>
<glyph name="a" format="1">
  <advance width="498"/>
  <unicode hex="0061"/>
  <outline>
    <contour>
      <point x="483" y="499" type="line"/>
      <point x="362" y="13" type="line"/>
      <point x="317" y="-9" type="line"/>
      <point x="354" y="142" type="line"/>
      <point x="348" y="142" type="line"/>
      <point x="263" y="27"/>
      <point x="210" y="-10"/>
      <point x="154" y="-10" type="curve" smooth="yes"/>
      <point x="70" y="-10"/>
      <point x="36" y="65"/>
      <point x="36" y="156" type="curve" smooth="yes"/>
      <point x="36" y="158" type="line" smooth="yes"/>
      <point x="36" y="366"/>
      <point x="162" y="522"/>
      <point x="274" y="522" type="curve" smooth="yes"/>
      <point x="342" y="522"/>
      <point x="373" y="480"/>
      <point x="411" y="393" type="curve"/>
      <point x="417" y="393" type="line"/>
      <point x="448" y="521" type="line"/>
    </contour>
    <contour>
      <point x="397" y="313" type="curve" smooth="yes"/>
      <point x="397" y="399"/>
      <point x="343" y="490"/>
      <point x="275" y="490" type="curve" smooth="yes"/>
      <point x="180" y="490"/>
      <point x="77" y="338"/>
      <point x="77" y="160" type="curve" smooth="yes"/>
      <point x="77" y="85"/>
      <point x="96" y="22"/>
      <point x="167" y="22" type="curve" smooth="yes"/>
      <point x="259" y="22"/>
      <point x="397" y="226"/>
    </contour>
  </outline>
</glyph>
<glyph name="c" format="1">
  <advance width="426"/>
  <unicode hex="0063"/>
  <outline>
    <contour>
      <point x="421" y="397" type="curve"/>
      <point x="387" y="385" type="line"/>
      <point x="373" y="449"/>
      <point x="346" y="490"/>
      <point x="283" y="490" type="curve" smooth="yes"/>
      <point x="190" y="490"/>
      <point x="123" y="397"/>
      <point x="93" y="286" type="curve" smooth="yes"/>
      <point x="82" y="246"/>
      <point x="77" y="209"/>
      <point x="77" y="169" type="curve" smooth="yes"/>
      <point x="77" y="167" type="line" smooth="yes"/>
      <point x="77" y="68"/>
      <point x="124" y="22"/>
      <point x="191" y="22" type="curve" smooth="yes"/>
      <point x="245" y="22"/>
      <point x="287" y="57"/>
      <point x="333" y="114" type="curve"/>
      <point x="360" y="94" type="line"/>
      <point x="309" y="29"/>
      <point x="254" y="-10"/>
      <point x="187" y="-10" type="curve" smooth="yes"/>
      <point x="104" y="-10"/>
      <point x="37" y="51"/>
      <point x="37" y="165" type="curve" smooth="yes"/>
      <point x="37" y="167" type="line" smooth="yes"/>
      <point x="37" y="203"/>
      <point x="42" y="242"/>
      <point x="51" y="279" type="curve" smooth="yes"/>
      <point x="83" y="405"/>
      <point x="165" y="522"/>
      <point x="288" y="522" type="curve" smooth="yes"/>
      <point x="366" y="522"/>
      <point x="406" y="468"/>
    </contour>
  </outline>
</glyph>
<glyph name="i" format="1">
  <advance width="212"/>
  <unicode hex="0069"/>
  <outline>
    <contour>
      <point x="248" y="720" type="line"/>
      <point x="229" y="645" type="line"/>
      <point x="175" y="645" type="line"/>
      <point x="194" y="720" type="line"/>
    </contour>
    <contour>
      <point x="190" y="512" type="line"/>
      <point x="62" y="0" type="line"/>
      <point x="22" y="0" type="line"/>
      <point x="150" y="512" type="line"/>
    </contour>
  </outline>
</glyph>
<glyph name="o" format="1">
  <advance width="472"/>
  <unicode hex="006F"/>
  <outline>
    <contour>
      <point x="435" y="345" type="line" smooth="yes"/>
      <point x="435" y="310"/>
      <point x="431" y="274"/>
      <point x="422" y="238" type="curve" smooth="yes"/>
      <point x="391" y="110"/>
      <point x="305" y="-10"/>
      <point x="185" y="-10" type="curve" smooth="yes"/>
      <point x="100" y="-10"/>
      <point x="37" y="51"/>
      <point x="37" y="165" type="curve" smooth="yes"/>
      <point x="37" y="167" type="line" smooth="yes"/>
      <point x="37" y="202"/>
      <point x="41" y="238"/>
      <point x="50" y="274" type="curve" smooth="yes"/>
      <point x="81" y="402"/>
      <point x="167" y="522"/>
      <point x="287" y="522" type="curve" smooth="yes"/>
      <point x="372" y="522"/>
      <point x="435" y="461"/>
      <point x="435" y="347" type="curve" smooth="yes"/>
    </contour>
    <contour>
      <point x="394" y="341" type="curve" smooth="yes"/>
      <point x="394" y="343" type="line" smooth="yes"/>
      <point x="394" y="442"/>
      <point x="351" y="490"/>
      <point x="285" y="490" type="curve" smooth="yes"/>
      <point x="189" y="490"/>
      <point x="120" y="393"/>
      <point x="93" y="285" type="curve" smooth="yes"/>
      <point x="83" y="246"/>
      <point x="78" y="209"/>
      <point x="78" y="171" type="curve" smooth="yes"/>
      <point x="78" y="169" type="line" smooth="yes"/>
      <point x="78" y="70"/>
      <point x="121" y="22"/>
      <point x="187" y="22" type="curve" smooth="yes"/>
      <point x="283" y="22"/>
      <point x="352" y="119"/>
      <point x="379" y="227" type="curve" smooth="yes"/>
      <point x="389" y="266"/>
      <point x="394" y="303"/>
    </contour>
  </outline>
</glyph>
<glyph name="w" format="1">
  <advance width="728"/>
  <unicode hex="0077"/>
  <outline>
    <contour>
      <point x="760" y="512" type="line"/>
      <point x="469" y="-4" type="line"/>
      <point x="429" y="-4" type="line"/>
      <point x="415" y="459" type="line"/>
      <point x="169" y="-4" type="line"/>
      <point x="129" y="-4" type="line"/>
      <point x="96" y="512" type="line"/>
      <point x="136" y="512" type="line"/>
      <point x="159" y="39" type="line"/>
      <point x="407" y="512" type="line"/>
      <point x="447" y="512" type="line"/>
      <point x="459" y="39" type="line"/>
      <point x="718" y="512" type="line"/>
    </contour>
  </outline>
</glyph>
<glyph name="x" format="1">
  <advance width="444"/>
  <unicode hex="0078"/>
  <outline>
    <contour>
      <point x="467" y="512" type="line"/>
      <point x="242" y="259" type="line"/>
      <point x="346" y="0" type="line"/>
      <point x="305" y="0" type="line"/>
      <point x="216" y="234" type="line"/>
      <point x="16" y="0" type="line"/>
      <point x="-30" y="0" type="line"/>
      <point x="203" y="262" type="line"/>
      <point x="103" y="512" type="line"/>
      <point x="144" y="512" type="line"/>
      <point x="229" y="287" type="line"/>
      <point x="421" y="512" type="line"/>
    </contour>
  </outline>
</glyph>
<glyph name="z" format="1">
  <advance width="401"/>
  <unicode hex="007A"/>
  <outline>
    <contour>
      <point x="429" y="507" type="line"/>
      <point x="423" y="480" type="line"/>
      <point x="23" y="32" type="line"/>
      <point x="311" y="32" type="line"/>
      <point x="303" y="0" type="line"/>
      <point x="-32" y="0" type="line"/>
      <point x="-25" y="27" type="line"/>
      <point x="374" y="475" type="line"/>
      <point x="101" y="475" type="line"/>
      <point x="109" y="507" type="line"/>
    </contour>
  </outline>
</glyph>
<glyph name="braceleft" format="1">
  <advance width="364"/>
  <unicode hex="007B"/>
  <outline>
    <contour>
      <point x="444" y="720" type="line"/>
      <point x="436" y="688" type="line"/>
      <point x="372" y="688" type="line" smooth="yes"/>
      <point x="313" y="688"/>
      <point x="279" y="661"/>
      <point x="267" y="614" type="curve" smooth="yes"/>
      <point x="253" y="560"/>
      <point x="259" y="500"/>
      <point x="246" y="447" type="curve" smooth="yes"/>
      <point x="227" y="370"/>
      <point x="183" y="345"/>
      <point x="110" y="323" type="curve"/>
      <point x="108" y="315" type="line"/>
      <point x="161" y="298"/>
      <point x="186" y="276"/>
      <point x="186" y="228" type="curve" smooth="yes"/>
      <point x="186" y="159"/>
      <point x="118" y="69"/>
      <point x="118" y="5" type="curve" smooth="yes"/>
      <point x="118" y="-28"/>
      <point x="142" y="-48"/>
      <point x="188" y="-48" type="curve" smooth="yes"/>
      <point x="252" y="-48" type="line"/>
      <point x="244" y="-80" type="line"/>
      <point x="182" y="-80" type="line" smooth="yes"/>
      <point x="117" y="-80"/>
      <point x="79" y="-55"/>
      <point x="79" y="2" type="curve" smooth="yes"/>
      <point x="79" y="81"/>
      <point x="148" y="166"/>
      <point x="148" y="231" type="curve" smooth="yes"/>
      <point x="148" y="275"/>
      <point x="112" y="303"/>
      <point x="38" y="303" type="curve"/>
      <point x="46" y="337" type="line"/>
      <point x="121" y="337"/>
      <point x="184" y="366"/>
      <point x="202" y="437" type="curve" smooth="yes"/>
      <point x="213" y="483"/>
      <point x="212" y="559"/>
      <point x="225" y="612" type="curve" smooth="yes"/>
      <point x="243" y="684"/>
      <point x="289" y="720"/>
      <point x="377" y="720" type="curve" smooth="yes"/>
    </contour>
  </outline>
</glyph>
<glyph name="braceright" format="1">
  <advance width="364"/>
  <unicode hex="007D"/>
  <outline>
    <contour>
      <point x="358" y="337" type="curve"/>
      <point x="350" y="303" type="line"/>
      <point x="275" y="303"/>
      <point x="212" y="274"/>
      <point x="194" y="203" type="curve" smooth="yes"/>
      <point x="183" y="157"/>
      <point x="184" y="81"/>
      <point x="171" y="28" type="curve" smooth="yes"/>
      <point x="153" y="-44"/>
      <point x="107" y="-80"/>
      <point x="19" y="-80" type="curve" smooth="yes"/>
      <point x="-48" y="-80" type="line"/>
      <point x="-40" y="-48" type="line"/>
      <point x="24" y="-48" type="line" smooth="yes"/>
      <point x="83" y="-48"/>
      <point x="117" y="-21"/>
      <point x="129" y="26" type="curve" smooth="yes"/>
      <point x="143" y="80"/>
      <point x="137" y="140"/>
      <point x="150" y="193" type="curve" smooth="yes"/>
      <point x="169" y="270"/>
      <point x="213" y="295"/>
      <point x="286" y="317" type="curve"/>
      <point x="288" y="325" type="line"/>
      <point x="235" y="342"/>
      <point x="210" y="364"/>
      <point x="210" y="412" type="curve" smooth="yes"/>
      <point x="210" y="481"/>
      <point x="278" y="571"/>
      <point x="278" y="635" type="curve" smooth="yes"/>
      <point x="278" y="668"/>
      <point x="254" y="688"/>
      <point x="208" y="688" type="curve" smooth="yes"/>
      <point x="144" y="688" type="line"/>
      <point x="152" y="720" type="line"/>
      <point x="214" y="720" type="line" smooth="yes"/>
      <point x="279" y="720"/>
      <point x="317" y="695"/>
      <point x="317" y="638" type="curve" smooth="yes"/>
      <point x="317" y="559"/>
      <point x="248" y="474"/>
      <point x="248" y="409" type="curve" smooth="yes"/>
      <point x="248" y="365"/>
      <point x="284" y="337"/>
    </contour>
  </outline>
</glyph>
<glyph name="sterling" format="1">
  <advance width="560"/>
  <unicode hex="00A3"/>
  <outline>
    <contour>
      <point x="593" y="615" type="curve"/>
      <point x="558" y="594" type="line"/>
      <point x="519" y="659"/>
      <point x="479" y="696"/>
      <point x="393" y="696" type="curve" smooth="yes"/>
      <point x="283" y="696"/>
      <point x="227" y="614"/>
      <point x="227" y="490" type="curve" smooth="yes"/>
      <point x="227" y="477"/>
      <point x="227" y="424"/>
      <point x="227" y="375" type="curve"/>
      <point x="420" y="375" type="line"/>
      <point x="411" y="340" type="line"/>
      <point x="227" y="340" type="line"/>
      <point x="227" y="330"/>
      <point x="227" y="321"/>
      <point x="227" y="314" type="curve" smooth="yes"/>
      <point x="227" y="226"/>
      <point x="209" y="158"/>
      <point x="174" y="106" type="curve"/>
      <point x="223" y="56"/>
      <point x="269" y="29"/>
      <point x="323" y="29" type="curve" smooth="yes"/>
      <point x="384" y="29"/>
      <point x="425" y="64"/>
      <point x="466" y="161" type="curve"/>
      <point x="501" y="147" type="line"/>
      <point x="456" y="35"/>
      <point x="398" y="-6"/>
      <point x="318" y="-6" type="curve" smooth="yes"/>
      <point x="249" y="-6"/>
      <point x="201" y="26"/>
      <point x="149" y="75" type="curve"/>
      <point x="111" y="35"/>
      <point x="59" y="9"/>
      <point x="-5" y="-6" type="curve"/>
      <point x="5" y="33" type="line"/>
      <point x="117" y="65"/>
      <point x="185" y="150"/>
      <point x="185" y="303" type="curve" smooth="yes"/>
      <point x="185" y="314"/>
      <point x="185" y="327"/>
      <point x="185" y="340" type="curve"/>
      <point x="61" y="340" type="line"/>
      <point x="70" y="375" type="line"/>
      <point x="185" y="375" type="line"/>
      <point x="185" y="415"/>
      <point x="185" y="455"/>
      <point x="185" y="480" type="curve" smooth="yes"/>
      <point x="185" y="630"/>
      <point x="258" y="731"/>
      <point x="398" y="731" type="curve" smooth="yes"/>
      <point x="501" y="731"/>
      <point x="557" y="683"/>
    </contour>
  </outline>
</glyph>
<glyph name="dieresis" format="1">
  <advance width="500"/>
  <unicode hex="00A8"/>
  <outline>
    <contour>
      <point x="466" y="667" type="line"/>
      <point x="448" y="592" type="line"/>
      <point x="389" y="592" type="line"/>
      <point x="407" y="667" type="line"/>
    </contour>
    <contour>
      <point x="295" y="667" type="line"/>
      <point x="277" y="592" type="line"/>
      <point x="218" y="592" type="line"/>
      <point x="236" y="667" type="line"/>
    </contour>
  </outline>
</glyph>
<glyph name="guillemotleft" format="1">
  <advance width="440"/>
  <unicode hex="00AB"/>
  <outline>
    <contour>
      <point x="450" y="432" type="line"/>
      <point x="267" y="251" type="line"/>
      <point x="358" y="80" type="line"/>
      <point x="326" y="80" type="line"/>
      <point x="215" y="256" type="line"/>
      <point x="414" y="432" type="line"/>
    </contour>
    <contour>
      <point x="267" y="432" type="line"/>
      <point x="84" y="251" type="line"/>
      <point x="175" y="80" type="line"/>
      <point x="143" y="80" type="line"/>
      <point x="32" y="256" type="line"/>
      <point x="231" y="432" type="line"/>
    </contour>
  </outline>
</glyph>
<glyph name="ordmasculine" format="1">
  <advance width="370"/>
  <unicode hex="00BA"/>
  <outline>
    <contour>
      <point x="389" y="609" type="curve" smooth="yes"/>
      <point x="389" y="495"/>
      <point x="321" y="373"/>
      <point x="214" y="373" type="curve" smooth="yes"/>
      <point x="153" y="373"/>
      <point x="105" y="414"/>
      <point x="105" y="491" type="curve" smooth="yes"/>
      <point x="105" y="605"/>
      <point x="173" y="727"/>
      <point x="280" y="727" type="curve" smooth="yes"/>
      <point x="341" y="727"/>
      <point x="389" y="686"/>
    </contour>
    <contour>
      <point x="320" y="292" type="line"/>
      <point x="312" y="261" type="line"/>
      <point x="60" y="261" type="line"/>
      <point x="68" y="292" type="line"/>
    </contour>
    <contour>
      <point x="353" y="606" type="curve" smooth="yes"/>
      <point x="353" y="669"/>
      <point x="322" y="698"/>
      <point x="278" y="698" type="curve" smooth="yes"/>
      <point x="192" y="698"/>
      <point x="141" y="590"/>
      <point x="141" y="494" type="curve" smooth="yes"/>
      <point x="141" y="431"/>
      <point x="172" y="402"/>
      <point x="216" y="402" type="curve" smooth="yes"/>
      <point x="302" y="402"/>
      <point x="353" y="510"/>
    </contour>
  </outline>
</glyph>
<glyph name="Ccedilla" format="1">
  <advance width="566"/>
  <unicode hex="00C7"/>
  <outline>
    <contour>
      <point x="579" y="517" type="curve"/>
      <point x="539" y="507" type="line"/>
      <point x="538" y="627"/>
      <point x="496" y="696"/>
      <point x="399" y="696" type="curve" smooth="yes"/>
      <point x="271" y="696"/>
      <point x="173" y="548"/>
      <point x="132" y="393" type="curve" smooth="yes"/>
      <point x="117" y="338"/>
      <point x="109" y="285"/>
      <point x="109" y="233" type="curve" smooth="yes"/>
      <point x="109" y="231" type="line" smooth="yes"/>
      <point x="109" y="117"/>
      <point x="153" y="24"/>
      <point x="259" y="24" type="curve" smooth="yes"/>
      <point x="350" y="24"/>
      <point x="415" y="91"/>
      <point x="467" y="198" type="curve"/>
      <point x="504" y="182" type="line"/>
      <point x="445" y="61"/>
      <point x="365" y="-9"/>
      <point x="262" y="-12" type="curve"/>
      <point x="221" y="-63" type="line"/>
      <point x="236" y="-58"/>
      <point x="251" y="-56"/>
      <point x="267" y="-56" type="curve" smooth="yes"/>
      <point x="298" y="-56"/>
      <point x="324" y="-73"/>
      <point x="324" y="-104" type="curve" smooth="yes"/>
      <point x="324" y="-159"/>
      <point x="266" y="-190"/>
      <point x="171" y="-190" type="curve" smooth="yes"/>
      <point x="151" y="-190"/>
      <point x="128" y="-189"/>
      <point x="106" y="-187" type="curve"/>
      <point x="112" y="-165" type="line"/>
      <point x="127" y="-167"/>
      <point x="142" y="-168"/>
      <point x="155" y="-168" type="curve" smooth="yes"/>
      <point x="237" y="-168"/>
      <point x="278" y="-147"/>
      <point x="278" y="-116" type="curve" smooth="yes"/>
      <point x="278" y="-96"/>
      <point x="263" y="-86"/>
      <point x="240" y="-86" type="curve" smooth="yes"/>
      <point x="221" y="-86"/>
      <point x="204" y="-90"/>
      <point x="183" y="-98" type="curve"/>
      <point x="167" y="-85" type="line"/>
      <point x="229" y="-10" type="line"/>
      <point x="122" y="2"/>
      <point x="65" y="94"/>
      <point x="65" y="230" type="curve" smooth="yes"/>
      <point x="65" y="232" type="line" smooth="yes"/>
      <point x="65" y="278"/>
      <point x="70" y="316"/>
      <point x="82" y="371" type="curve" smooth="yes"/>
      <point x="123" y="555"/>
      <point x="241" y="732"/>
      <point x="402" y="732" type="curve" smooth="yes"/>
      <point x="521" y="732"/>
      <point x="580" y="652"/>
    </contour>
  </outline>
</glyph>
<glyph name="Oslash" format="1">
  <advance width="604"/>
  <unicode hex="00D8"/>
  <outline>
    <contour>
      <point x="689" y="817" type="line"/>
      <point x="557" y="641" type="line"/>
      <point x="579" y="601"/>
      <point x="591" y="550"/>
      <point x="591" y="490" type="curve" smooth="yes"/>
      <point x="591" y="488" type="line" smooth="yes"/>
      <point x="591" y="437"/>
      <point x="584" y="392"/>
      <point x="572" y="338" type="curve" smooth="yes"/>
      <point x="532" y="160"/>
      <point x="414" y="-12"/>
      <point x="258" y="-12" type="curve" smooth="yes"/>
      <point x="197" y="-12"/>
      <point x="149" y="11"/>
      <point x="116" y="52" type="curve"/>
      <point x="6" y="-95" type="line"/>
      <point x="-32" y="-95" type="line"/>
      <point x="98" y="79" type="line"/>
      <point x="77" y="118"/>
      <point x="65" y="170"/>
      <point x="65" y="230" type="curve" smooth="yes"/>
      <point x="65" y="232" type="line" smooth="yes"/>
      <point x="65" y="283"/>
      <point x="72" y="328"/>
      <point x="84" y="382" type="curve" smooth="yes"/>
      <point x="124" y="560"/>
      <point x="242" y="732"/>
      <point x="398" y="732" type="curve" smooth="yes"/>
      <point x="459" y="732"/>
      <point x="507" y="709"/>
      <point x="539" y="668" type="curve"/>
      <point x="651" y="817" type="line"/>
    </contour>
    <contour>
      <point x="513" y="633" type="line"/>
      <point x="489" y="673"/>
      <point x="450" y="697"/>
      <point x="395" y="697" type="curve" smooth="yes"/>
      <point x="271" y="697"/>
      <point x="172" y="552"/>
      <point x="132" y="401" type="curve" smooth="yes"/>
      <point x="117" y="346"/>
      <point x="108" y="286"/>
      <point x="108" y="233" type="curve" smooth="yes"/>
      <point x="108" y="231" type="line" smooth="yes"/>
      <point x="108" y="189"/>
      <point x="114" y="150"/>
      <point x="127" y="117" type="curve"/>
    </contour>
    <contour>
      <point x="548" y="487" type="curve" smooth="yes"/>
      <point x="548" y="489" type="line" smooth="yes"/>
      <point x="548" y="531"/>
      <point x="542" y="570"/>
      <point x="529" y="603" type="curve"/>
      <point x="142" y="87" type="line"/>
      <point x="167" y="48"/>
      <point x="206" y="23"/>
      <point x="261" y="23" type="curve" smooth="yes"/>
      <point x="385" y="23"/>
      <point x="484" y="168"/>
      <point x="524" y="319" type="curve" smooth="yes"/>
      <point x="539" y="374"/>
      <point x="548" y="434"/>
    </contour>
  </outline>
</glyph>
<glyph name="ae" format="1">
  <advance width="741"/>
  <unicode hex="00E6"/>
  <outline>
    <contour>
      <point x="712" y="355" type="curve" smooth="yes"/>
      <point x="712" y="323"/>
      <point x="706" y="281"/>
      <point x="698" y="251" type="curve"/>
      <point x="383" y="251" type="line"/>
      <point x="378" y="225"/>
      <point x="376" y="198"/>
      <point x="376" y="169" type="curve" smooth="yes"/>
      <point x="376" y="167" type="line" smooth="yes"/>
      <point x="376" y="77"/>
      <point x="415" y="22"/>
      <point x="483" y="22" type="curve" smooth="yes"/>
      <point x="538" y="22"/>
      <point x="577" y="48"/>
      <point x="624" y="89" type="curve"/>
      <point x="645" y="64" type="line"/>
      <point x="597" y="19"/>
      <point x="548" y="-10"/>
      <point x="481" y="-10" type="curve" smooth="yes"/>
      <point x="413" y="-10"/>
      <point x="362" y="32"/>
      <point x="343" y="103" type="curve"/>
      <point x="338" y="103" type="line"/>
      <point x="247" y="17"/>
      <point x="192" y="-8"/>
      <point x="126" y="-8" type="curve" smooth="yes"/>
      <point x="64" y="-8"/>
      <point x="14" y="31"/>
      <point x="14" y="101" type="curve" smooth="yes"/>
      <point x="14" y="221"/>
      <point x="126" y="306"/>
      <point x="355" y="302" type="curve"/>
      <point x="370" y="360" type="line" smooth="yes"/>
      <point x="375" y="379"/>
      <point x="377" y="395"/>
      <point x="377" y="409" type="curve" smooth="yes"/>
      <point x="377" y="462"/>
      <point x="347" y="485"/>
      <point x="281" y="485" type="curve" smooth="yes"/>
      <point x="230" y="485"/>
      <point x="200" y="475"/>
      <point x="137" y="448" type="curve"/>
      <point x="130" y="480" type="line"/>
      <point x="189" y="504"/>
      <point x="229" y="518"/>
      <point x="288" y="518" type="curve" smooth="yes"/>
      <point x="374" y="518"/>
      <point x="410" y="487"/>
      <point x="413" y="415" type="curve"/>
      <point x="417" y="415" type="line"/>
      <point x="461" y="479"/>
      <point x="519" y="522"/>
      <point x="583" y="522" type="curve" smooth="yes"/>
      <point x="682" y="522"/>
      <point x="712" y="435"/>
    </contour>
    <contour>
      <point x="672" y="353" type="curve" smooth="yes"/>
      <point x="672" y="426"/>
      <point x="652" y="490"/>
      <point x="581" y="490" type="curve" smooth="yes"/>
      <point x="500" y="490"/>
      <point x="419" y="402"/>
      <point x="390" y="283" type="curve"/>
      <point x="665" y="283" type="line"/>
      <point x="670" y="309"/>
      <point x="672" y="329"/>
    </contour>
    <contour>
      <point x="349" y="274" type="curve"/>
      <point x="130" y="279"/>
      <point x="56" y="193"/>
      <point x="56" y="105" type="curve" smooth="yes"/>
      <point x="56" y="53"/>
      <point x="91" y="23"/>
      <point x="139" y="23" type="curve" smooth="yes"/>
      <point x="187" y="23"/>
      <point x="242" y="44"/>
      <point x="337" y="141" type="curve"/>
      <point x="336" y="148"/>
      <point x="336" y="157"/>
      <point x="336" y="165" type="curve" smooth="yes"/>
      <point x="336" y="167" type="line" smooth="yes"/>
      <point x="336" y="204"/>
      <point x="340" y="240"/>
    </contour>
  </outline>
</glyph>
<glyph name="divide" format="1">
  <advance width="600"/>
  <unicode hex="00F7"/>
  <outline>
    <contour>
      <point x="365" y="549" type="curve" smooth="yes"/>
      <point x="365" y="526"/>
      <point x="348" y="509"/>
      <point x="325" y="509" type="curve" smooth="yes"/>
      <point x="302" y="509"/>
      <point x="285" y="526"/>
      <point x="285" y="549" type="curve" smooth="yes"/>
      <point x="285" y="572"/>
      <point x="302" y="589"/>
      <point x="325" y="589" type="curve" smooth="yes"/>
      <point x="348" y="589"/>
      <point x="365" y="572"/>
    </contour>
    <contour>
      <point x="577" y="335" type="line"/>
      <point x="73" y="335" type="line"/>
      <point x="73" y="375" type="line"/>
      <point x="577" y="375" type="line"/>
    </contour>
    <contour>
      <point x="365" y="161" type="curve" smooth="yes"/>
      <point x="365" y="138"/>
      <point x="348" y="121"/>
      <point x="325" y="121" type="curve" smooth="yes"/>
      <point x="302" y="121"/>
      <point x="285" y="138"/>
      <point x="285" y="161" type="curve" smooth="yes"/>
      <point x="285" y="184"/>
      <point x="302" y="201"/>
      <point x="325" y="201" type="curve" smooth="yes"/>
      <point x="348" y="201"/>
      <point x="365" y="184"/>
    </contour>
  </outline>
</glyph>
<glyph name="OE" format="1">
  <advance width="882"/>
  <unicode hex="0152"/>
  <outline>
    <contour>
      <point x="943" y="720" type="line"/>
      <point x="934" y="684" type="line"/>
      <point x="600" y="684" type="line"/>
      <point x="528" y="396" type="line"/>
      <point x="809" y="396" type="line"/>
      <point x="801" y="360" type="line"/>
      <point x="520" y="360" type="line"/>
      <point x="439" y="36" type="line"/>
      <point x="785" y="36" type="line"/>
      <point x="776" y="0" type="line"/>
      <point x="336" y="0" type="line" smooth="yes"/>
      <point x="184" y="0"/>
      <point x="71" y="82"/>
      <point x="71" y="260" type="curve" smooth="yes"/>
      <point x="71" y="262" type="line" smooth="yes"/>
      <point x="71" y="307"/>
      <point x="75" y="342"/>
      <point x="84" y="382" type="curve" smooth="yes"/>
      <point x="132" y="591"/>
      <point x="299" y="720"/>
      <point x="484" y="720" type="curve" smooth="yes"/>
    </contour>
    <contour>
      <point x="557" y="684" type="line"/>
      <point x="481" y="684" type="line" smooth="yes"/>
      <point x="321" y="684"/>
      <point x="178" y="573"/>
      <point x="131" y="394" type="curve" smooth="yes"/>
      <point x="121" y="356"/>
      <point x="115" y="308"/>
      <point x="115" y="264" type="curve" smooth="yes"/>
      <point x="115" y="262" type="line" smooth="yes"/>
      <point x="115" y="111"/>
      <point x="207" y="36"/>
      <point x="339" y="36" type="curve" smooth="yes"/>
      <point x="396" y="36" type="line"/>
    </contour>
  </outline>
</glyph>
<glyph name="florin" format="1">
  <advance width="400"/>
  <unicode hex="0192"/>
  <outline>
    <contour>
      <point x="457" y="705" type="curve"/>
      <point x="447" y="666" type="line"/>
      <point x="427" y="679"/>
      <point x="400" y="692"/>
      <point x="361" y="692" type="curve" smooth="yes"/>
      <point x="320" y="692"/>
      <point x="290" y="669"/>
      <point x="274" y="604" type="curve" smooth="yes"/>
      <point x="237" y="454" type="line"/>
      <point x="367" y="454" type="line"/>
      <point x="359" y="420" type="line"/>
      <point x="229" y="420" type="line"/>
      <point x="100" y="-96" type="line" smooth="yes"/>
      <point x="82" y="-168"/>
      <point x="38" y="-190"/>
      <point x="-17" y="-190" type="curve" smooth="yes"/>
      <point x="-40" y="-190"/>
      <point x="-59" y="-184"/>
      <point x="-79" y="-175" type="curve"/>
      <point x="-70" y="-139" type="line"/>
      <point x="-53" y="-149"/>
      <point x="-35" y="-155"/>
      <point x="-14" y="-155" type="curve" smooth="yes"/>
      <point x="28" y="-155"/>
      <point x="49" y="-135"/>
      <point x="61" y="-87" type="curve" smooth="yes"/>
      <point x="188" y="420" type="line"/>
      <point x="83" y="420" type="line"/>
      <point x="91" y="454" type="line"/>
      <point x="196" y="454" type="line"/>
      <point x="233" y="605" type="line" smooth="yes"/>
      <point x="254" y="690"/>
      <point x="302" y="726"/>
      <point x="370" y="726" type="curve" smooth="yes"/>
      <point x="404" y="726"/>
      <point x="437" y="716"/>
    </contour>
  </outline>
</glyph>
<glyph name="caron" format="1">
  <advance width="500"/>
  <unicode hex="02C7"/>
  <outline>
    <contour>
      <point x="521" y="748" type="line"/>
      <point x="355" y="592" type="line"/>
      <point x="311" y="592" type="line"/>
      <point x="223" y="748" type="line"/>
      <point x="247" y="748" type="line"/>
      <point x="341" y="634" type="line"/>
      <point x="491" y="748" type="line"/>
    </contour>
  </outline>
</glyph>
<glyph name="dotaccent" format="1">
  <advance width="500"/>
  <unicode hex="02D9"/>
  <outline>
    <contour>
      <point x="382" y="667" type="line"/>
      <point x="364" y="592" type="line"/>
      <point x="302" y="592" type="line"/>
      <point x="320" y="667" type="line"/>
    </contour>
  </outline>
</glyph>
<glyph name="ring" format="1">
  <advance width="500"/>
  <unicode hex="02DA"/>
  <outline>
    <contour>
      <point x="440" y="672" type="curve" smooth="yes"/>
      <point x="440" y="622"/>
      <point x="403" y="585"/>
      <point x="353" y="585" type="curve" smooth="yes"/>
      <point x="303" y="585"/>
      <point x="266" y="622"/>
      <point x="266" y="672" type="curve" smooth="yes"/>
      <point x="266" y="721"/>
      <point x="303" y="758"/>
      <point x="353" y="758" type="curve" smooth="yes"/>
      <point x="403" y="758"/>
      <point x="440" y="721"/>
    </contour>
    <contour>
      <point x="410" y="672" type="curve" smooth="yes"/>
      <point x="410" y="706"/>
      <point x="386" y="731"/>
      <point x="353" y="731" type="curve" smooth="yes"/>
      <point x="320" y="731"/>
      <point x="296" y="706"/>
      <point x="296" y="672" type="curve" smooth="yes"/>
      <point x="296" y="637"/>
      <point x="320" y="612"/>
      <point x="353" y="612" type="curve" smooth="yes"/>
      <point x="386" y="612"/>
      <point x="410" y="637"/>
    </contour>
  </outline>
</glyph>
<glyph name="ogonek" format="1">
  <advance width="500"/>
  <unicode hex="02DB"/>
  <outline>
    <contour>
      <point x="262" y="-154" type="line"/>
      <point x="218" y="-178"/>
      <point x="176" y="-190"/>
      <point x="146" y="-190" type="curve" smooth="yes"/>
      <point x="92" y="-190"/>
      <point x="60" y="-165"/>
      <point x="60" y="-125" type="curve" smooth="yes"/>
      <point x="60" y="-87"/>
      <point x="93" y="-44"/>
      <point x="173" y="0" type="curve"/>
      <point x="208" y="0" type="line"/>
      <point x="137" y="-44"/>
      <point x="106" y="-87"/>
      <point x="106" y="-116" type="curve" smooth="yes"/>
      <point x="106" y="-143"/>
      <point x="129" y="-159"/>
      <point x="161" y="-159" type="curve" smooth="yes"/>
      <point x="194" y="-159"/>
      <point x="220" y="-150"/>
      <point x="257" y="-135" type="curve"/>
    </contour>
  </outline>
</glyph>
<glyph name="hungarumlaut" format="1">
  <advance width="500"/>
  <unicode hex="02DD"/>
  <outline>
    <contour>
      <point x="530" y="743" type="line"/>
      <point x="365" y="592" type="line"/>
      <point x="334" y="592" type="line"/>
      <point x="461" y="743" type="line"/>
    </contour>
    <contour>
      <point x="368" y="743" type="line"/>
      <point x="203" y="592" type="line"/>
      <point x="172" y="592" type="line"/>
      <point x="299" y="743" type="line"/>
    </contour>
  </outline>
</glyph>
<glyph name="emdash" format="1">
  <advance width="1000"/>
  <unicode hex="2014"/>
  <outline>
    <contour>
      <point x="970" y="297" type="line"/>
      <point x="960" y="259" type="line"/>
      <point x="40" y="259" type="line"/>
      <point x="50" y="297" type="line"/>
    </contour>
  </outline>
</glyph>
<glyph name="quoteleft" format="1">
  <advance width="170"/>
  <unicode hex="2018"/>
  <unicode hex="02BB"/>
  <outline>
    <contour>
      <point x="202" y="720" type="line"/>
      <point x="195" y="525" type="line"/>
      <point x="168" y="525" type="line"/>
      <point x="152" y="720" type="line"/>
    </contour>
  </outline>
</glyph>
<glyph name="quotesinglbase" format="1">
  <advance width="170"/>
  <unicode hex="201A"/>
  <outline>
    <contour>
      <point x="84" y="75" type="line"/>
      <point x="-33" y="-120" type="line"/>
      <point x="-65" y="-120" type="line"/>
      <point x="25" y="75" type="line"/>
    </contour>
  </outline>
</glyph>
<glyph name="quotedblleft" format="1">
  <advance width="300"/>
  <unicode hex="201C"/>
  <outline>
    <contour>
      <point x="332" y="720" type="line"/>
      <point x="325" y="525" type="line"/>
      <point x="298" y="525" type="line"/>
      <point x="282" y="720" type="line"/>
    </contour>
    <contour>
      <point x="202" y="720" type="line"/>
      <point x="195" y="525" type="line"/>
      <point x="168" y="525" type="line"/>
      <point x="152" y="720" type="line"/>
    </contour>
  </outline>
</glyph>
<glyph name="quotedblright" format="1">
  <advance width="300"/>
  <unicode hex="201D"/>
  <outline>
    <contour>
      <point x="386" y="720" type="line"/>
      <point x="269" y="525" type="line"/>
      <point x="237" y="525" type="line"/>
      <point x="327" y="720" type="line"/>
    </contour>
    <contour>
      <point x="256" y="720" type="line"/>
      <point x="139" y="525" type="line"/>
      <point x="107" y="525" type="line"/>
      <point x="197" y="720" type="line"/>
    </contour>
  </outline>
</glyph>
<glyph name="dagger" format="1">
  <advance width="418"/>
  <unicode hex="2020"/>
  <outline>
    <contour>
      <point x="448" y="515" type="line"/>
      <point x="438" y="474" type="line"/>
      <point x="279" y="485" type="line"/>
      <point x="256" y="347" type="line"/>
      <point x="155" y="0" type="line"/>
      <point x="135" y="0" type="line"/>
      <point x="206" y="347" type="line"/>
      <point x="253" y="485" type="line"/>
      <point x="88" y="474" type="line"/>
      <point x="98" y="515" type="line"/>
      <point x="257" y="503" type="line"/>
      <point x="299" y="720" type="line"/>
      <point x="349" y="720" type="line"/>
      <point x="283" y="503" type="line"/>
    </contour>
  </outline>
</glyph>
<glyph name="daggerdbl" format="1">
  <advance width="448"/>
  <unicode hex="2021"/>
  <outline>
    <contour>
      <point x="469" y="535" type="line"/>
      <point x="458" y="494" type="line"/>
      <point x="299" y="505" type="line"/>
      <point x="274" y="360" type="line"/>
      <point x="227" y="215" type="line"/>
      <point x="392" y="226" type="line"/>
      <point x="381" y="185" type="line"/>
      <point x="222" y="197" type="line"/>
      <point x="185" y="0" type="line"/>
      <point x="135" y="0" type="line"/>
      <point x="196" y="197" type="line"/>
      <point x="31" y="185" type="line"/>
      <point x="42" y="226" type="line"/>
      <point x="201" y="215" type="line"/>
      <point x="226" y="360" type="line"/>
      <point x="273" y="505" type="line"/>
      <point x="108" y="494" type="line"/>
      <point x="119" y="535" type="line"/>
      <point x="278" y="523" type="line"/>
      <point x="315" y="720" type="line"/>
      <point x="365" y="720" type="line"/>
      <point x="304" y="523" type="line"/>
    </contour>
  </outline>
</glyph>
<glyph name="guilsinglright" format="1">
  <advance width="257"/>
  <unicode hex="203A"/>
  <outline>
    <contour>
      <point x="225" y="256" type="line"/>
      <point x="26" y="80" type="line"/>
      <point x="-10" y="80" type="line"/>
      <point x="173" y="261" type="line"/>
      <point x="82" y="432" type="line"/>
      <point x="114" y="432" type="line"/>
    </contour>
  </outline>
</glyph>
<glyph name="fraction" format="1">
  <advance width="360"/>
  <unicode hex="2044"/>
  <outline>
    <contour>
      <point x="499" y="735" type="line"/>
      <point x="-42" y="-15" type="line"/>
      <point x="-87" y="-15" type="line"/>
      <point x="454" y="735" type="line"/>
    </contour>
  </outline>
</glyph>
<glyph name="minus" format="1">
  <advance width="600"/>
  <unicode hex="2212"/>
  <outline>
    <contour>
      <point x="577" y="334" type="line"/>
      <point x="73" y="334" type="line"/>
      <point x="73" y="376" type="line"/>
      <point x="577" y="376" type="line"/>
    </contour>
  </outline>
</glyph>
<glyph name="radical" format="1">
  <advance width="550"/>
  <unicode hex="221A"/>
  <outline>
    <contour>
      <point x="622" y="720" type="line"/>
      <point x="197" y="-3" type="line"/>
      <point x="156" y="-3" type="line"/>
      <point x="72" y="340" type="line"/>
      <point x="115" y="340" type="line"/>
      <point x="183" y="38" type="line"/>
      <point x="575" y="720" type="line"/>
    </contour>
  </outline>
</glyph>
<glyph name="fl" format="1">
  <advance width="517"/>
  <unicode hex="FB02"/>
  <outline>
    <contour>
      <point x="556" y="762" type="line"/>
      <point x="367" y="0" type="line"/>
      <point x="327" y="0" type="line"/>
      <point x="511" y="740" type="line"/>
    </contour>
    <contour>
      <point x="440" y="738" type="curve"/>
      <point x="430" y="701" type="line"/>
      <point x="410" y="714"/>
      <point x="383" y="727"/>
      <point x="344" y="727" type="curve" smooth="yes"/>
      <point x="303" y="727"/>
      <point x="273" y="702"/>
      <point x="257" y="637" type="curve" smooth="yes"/>
      <point x="225" y="507" type="line"/>
      <point x="355" y="507" type="line"/>
      <point x="347" y="475" type="line"/>
      <point x="217" y="475" type="line"/>
      <point x="52" y="-188" type="line"/>
      <point x="12" y="-188" type="line"/>
      <point x="177" y="475" type="line"/>
      <point x="71" y="475" type="line"/>
      <point x="79" y="507" type="line"/>
      <point x="185" y="507" type="line"/>
      <point x="217" y="638" type="line" smooth="yes"/>
      <point x="238" y="723"/>
      <point x="285" y="759"/>
      <point x="353" y="759" type="curve" smooth="yes"/>
      <point x="387" y="759"/>
      <point x="420" y="749"/>
    </contour>
  </outline>
</glyph>
<glyph name="I.salt" format="1">
  <advance width="248"/>
  <outline>
    <contour>
      <point x="261" y="720" type="line"/>
      <point x="82" y="0" type="line"/>
      <point x="38" y="0" type="line"/>
      <point x="217" y="720" type="line"/>
    </contour>
  </outline>
</glyph>
<glyph name="macron" format="1">
  <advance width="500"/>
  <outline>
    <contour>
      <point x="489" y="675" type="line"/>
      <point x="479" y="633" type="line"/>
      <point x="207" y="633" type="line"/>
      <point x="217" y="675" type="line"/>
    </contour>
  </outline>
</glyph>
<glyph name="registered.big" format="1">
  <advance width="840"/>
  <outline>
    <contour>
      <point x="818" y="360" type="curve" smooth="yes"/>
      <point x="818" y="150"/>
      <point x="656" y="-12"/>
      <point x="446" y="-12" type="curve" smooth="yes"/>
      <point x="236" y="-12"/>
      <point x="74" y="150"/>
      <point x="74" y="360" type="curve" smooth="yes"/>
      <point x="74" y="570"/>
      <point x="236" y="732"/>
      <point x="446" y="732" type="curve" smooth="yes"/>
      <point x="656" y="732"/>
      <point x="818" y="570"/>
    </contour>
    <contour>
      <point x="784" y="360" type="curve" smooth="yes"/>
      <point x="784" y="553"/>
      <point x="639" y="702"/>
      <point x="446" y="702" type="curve" smooth="yes"/>
      <point x="253" y="702"/>
      <point x="108" y="553"/>
      <point x="108" y="360" type="curve" smooth="yes"/>
      <point x="108" y="167"/>
      <point x="253" y="18"/>
      <point x="446" y="18" type="curve" smooth="yes"/>
      <point x="639" y="18"/>
      <point x="784" y="167"/>
    </contour>
    <contour>
      <point x="603" y="164" type="line"/>
      <point x="555" y="164" type="line"/>
      <point x="434" y="341" type="line"/>
      <point x="371" y="341" type="line"/>
      <point x="371" y="164" type="line"/>
      <point x="330" y="164" type="line"/>
      <point x="330" y="565" type="line"/>
      <point x="454" y="565" type="line" smooth="yes"/>
      <point x="536" y="565"/>
      <point x="587" y="526"/>
      <point x="587" y="454" type="curve" smooth="yes"/>
      <point x="587" y="389"/>
      <point x="545" y="352"/>
      <point x="480" y="343" type="curve"/>
    </contour>
    <contour>
      <point x="546" y="453" type="curve" smooth="yes"/>
      <point x="546" y="503"/>
      <point x="514" y="530"/>
      <point x="452" y="530" type="curve" smooth="yes"/>
      <point x="371" y="530" type="line"/>
      <point x="371" y="377" type="line"/>
      <point x="454" y="377" type="line" smooth="yes"/>
      <point x="513" y="377"/>
      <point x="546" y="400"/>
    </contour>
  </outline>
</glyph>
<glyph name="registered" format="1">
  <advance width="532"/>
  <outline>
    <contour>
      <point x="550" y="504" type="curve" smooth="yes"/>
      <point x="550" y="378"/>
      <point x="453" y="281"/>
      <point x="327" y="281" type="curve" smooth="yes"/>
      <point x="201" y="281"/>
      <point x="104" y="378"/>
      <point x="104" y="504" type="curve" smooth="yes"/>
      <point x="104" y="630"/>
      <point x="201" y="727"/>
      <point x="327" y="727" type="curve" smooth="yes"/>
      <point x="453" y="727"/>
      <point x="550" y="630"/>
    </contour>
    <contour>
      <point x="525" y="504" type="curve" smooth="yes"/>
      <point x="525" y="617"/>
      <point x="440" y="704"/>
      <point x="327" y="704" type="curve" smooth="yes"/>
      <point x="214" y="704"/>
      <point x="129" y="617"/>
      <point x="129" y="504" type="curve" smooth="yes"/>
      <point x="129" y="391"/>
      <point x="214" y="304"/>
      <point x="327" y="304" type="curve" smooth="yes"/>
      <point x="440" y="304"/>
      <point x="525" y="391"/>
    </contour>
    <contour>
      <point x="429" y="382" type="line"/>
      <point x="391" y="382" type="line"/>
      <point x="317" y="489" type="line"/>
      <point x="286" y="489" type="line"/>
      <point x="286" y="382" type="line"/>
      <point x="253" y="382" type="line"/>
      <point x="253" y="631" type="line"/>
      <point x="332" y="631" type="line" smooth="yes"/>
      <point x="384" y="631"/>
      <point x="416" y="606"/>
      <point x="416" y="560" type="curve" smooth="yes"/>
      <point x="416" y="521"/>
      <point x="391" y="497"/>
      <point x="354" y="491" type="curve"/>
    </contour>
    <contour>
      <point x="383" y="560" type="curve" smooth="yes"/>
      <point x="383" y="588"/>
      <point x="365" y="602"/>
      <point x="331" y="602" type="curve" smooth="yes"/>
      <point x="286" y="602" type="line"/>
      <point x="286" y="518" type="line"/>
      <point x="332" y="518" type="line" smooth="yes"/>
      <point x="364" y="518"/>
      <point x="383" y="531"/>
    </contour>
  </outline>
</glyph>
